<svg xmlns="http://www.w3.org/2000/svg"  viewBox="0 0 48 48" width="48px" height="48px"><path fill="#3dd9eb" d="M42,37c0,2.762-2.238,5-5,5H11c-2.761,0-5-2.238-5-5V11c0-2.762,2.239-5,5-5h26c2.762,0,5,2.238,5,5 V37z"/><rect width="5" height="17" x="12" y="19" fill="#c2ffff"/><path fill="#c2ffff" d="M14.485,17h-0.028C12.965,17,12,15.888,12,14.499C12,13.08,12.995,12,14.514,12 c1.521,0,2.458,1.08,2.486,2.499C17,15.887,16.035,17,14.485,17z"/><path fill="#c2ffff" d="M36,36l-0.001-9.726c0-5.024-2.683-7.274-6.261-7.274c-1.652,0-3.352,0.594-4.738,1.938V19h-5v17h5 V25.187l0.002,0.001c0.394-0.978,1.305-1.985,2.806-1.985c1.967,0,3.192,1.5,3.192,3.698V36H36z"/></svg>