<svg xmlns="http://www.w3.org/2000/svg"  viewBox="0 0 48 48" width="48px" height="48px"><path fill="#3dd9eb" d="M44,24c0,11.045-8.955,20-20,20S4,35.045,4,24S12.955,4,24,4S44,12.955,44,24z"/><path fill="#c2ffff" d="M11.553,23.717c6.99-3.075,16.035-6.824,17.284-7.343c3.275-1.358,4.28-1.098,3.779,1.91 c-0.36,2.162-1.398,9.319-2.226,13.774c-0.491,2.642-1.593,2.955-3.325,1.812c-0.833-0.55-5.038-3.331-5.951-3.984 c-0.833-0.595-1.982-1.311-0.541-2.721c0.513-0.502,3.874-3.712,6.493-6.21c0.343-0.328-0.088-0.867-0.484-0.604 c-3.53,2.341-8.424,5.59-9.047,6.013c-0.941,0.639-1.845,0.932-3.467,0.466c-1.226-0.352-2.423-0.772-2.889-0.932 C9.384,25.282,9.81,24.484,11.553,23.717z"/></svg>