<svg xmlns="http://www.w3.org/2000/svg"  viewBox="0 0 64 64" width="64px" height="64px" baseProfile="basic"><path fill="#37d0ee" d="M54,20c0-5.523-4.477-10-10-10H32H20c-5.523,0-10,4.477-10,10v24.008c0,5.523,4.477,10,10,10h12h12 c5.523,0,10-4.477,10-10V20z"/><ellipse cx="32" cy="61" opacity=".3" rx="20" ry="3"/><path fill="#fff" d="M14.01,12H14c-2.24,1.69-3.75,4.29-3.97,7.25C10.01,19.49,10,19.75,10,20v12 c2.761,0,5-2.239,5-5v-7c0-0.108,0.003-0.221,0.017-0.38c0.102-1.375,0.778-2.65,1.862-3.525c0.048-0.033,0.095-0.068,0.142-0.103 C17.881,15.343,18.911,15,20,15h5c2.761,0,5-2.239,5-5H20C17.75,10,15.68,10.74,14.01,12z" opacity=".3"/><path d="M54,44V22c-2.761,0-5,2.238-5,5v17c0,2.757-2.243,5-5,5h-5c-2.761,0-5,2.238-5,5h10 C49.523,54,54,49.523,54,44z" opacity=".15"/><path fill="none" stroke="#fff" stroke-linecap="round" stroke-linejoin="round" stroke-miterlimit="10" stroke-width="3" d="M13.5,23.5V20c0-0.153,0.005-0.312,0.018-0.459c0.135-1.809,1.003-3.46,2.396-4.594l0.204-0.152"/><path fill="#fff" d="M44.929,24.319c0.052-0.191,0.076-0.369,0.07-0.527C44.982,23.333,44.702,23,44.042,23h-2.945	c-0.744,0-1.087,0.507-1.287,1.015c0,0-1.836,4.255-3.952,7.06c-0.686,0.812-1.035,0.792-1.406,0.792	c-0.199,0-0.702-0.271-0.702-1.015v-6.568c0-0.879-0.195-1.284-0.823-1.284h-5.23C27.238,23,27,23.405,27,23.812	c0,0.845,1.01,1.048,1.125,3.415v4.589c0,1.115-0.172,1.317-0.543,1.317c-1.001,0-2.972-3.8-4.292-8.781	C23.004,23.372,22.718,23,21.975,23h-2.973C18.143,23,18,23.474,18,23.98c0,0.913,0.675,5.851,4.359,11.528	C25.031,39.625,28.551,42,31.667,42c1.888,0,2.081-0.541,2.081-1.386V36.85c0.001-1.015,0.207-1.183,0.808-1.183	c0.429,0,1.303,0.317,2.99,2.533c1.946,2.556,2.299,3.8,3.415,3.8h2.945c0.684,0,1.077-0.323,1.092-0.95	c0.003-0.16-0.017-0.338-0.063-0.537c-0.218-0.73-1.219-2.513-2.468-4.213c-0.692-0.941-1.375-1.873-1.689-2.38	c-0.21-0.331-0.29-0.564-0.28-0.787c0.01-0.234,0.118-0.457,0.28-0.769C40.751,32.364,44.558,26.347,44.929,24.319z"/></svg>